<svg xmlns="http://www.w3.org/2000/svg" width="173.25" height="173.25" viewBox="0 0 231 231"><path d="M115.5.5a115 115 0 11-115 115 115 115 0 01115-115zm0 13.529A101.471 101.471 0 1114.029 115.5 101.471 101.471 0 01115.5 14.029zm-8.425 164.749h15.775v-16.489h-15.775v16.489zM80.043 98.791h14.11q.4-10.305 3.319-15.776 5.18-9.828 18.7-9.83 10.926 0 15.661 5.708a20.449 20.449 0 014.736 13.477 19.6 19.6 0 01-3.293 10.7 27.221 27.221 0 01-4.721 5.628l-6.47 6.263q-9.3 8.958-11.994 15.894t-2.695 18.273H121.5q0-9.988 2.346-15.1t10.117-12.486q10.686-10.142 14.137-15.379t3.449-13.635q0-13.872-9.511-22.791t-25.319-8.918q-17.094 0-26.885 10.424t-9.79 27.548h0z" stroke="#000" fill-rule="evenodd"/></svg>