<svg xmlns="http://www.w3.org/2000/svg" width="138.4" height="32"><path d="M9.7 31.6H0V.4h9.7v11.7h9.7V.4h9.7v31.1h-9.7V17.7H9.7v13.9zm66.1-13.2c0-3.4-1.3-3.6-2.2-3.8-.1 0-.2 0-.3-.1-1 0-1.8.1-2.7 1-.9.9-1 2.2-1 3.9v12.2h-8.5V18.5c0-1.9-.2-3.6-2.4-3.9-1-.1-1.9.2-2.7.9-.7.7-1.2 2.3-1.2 4v12.1h-8.4V27c-1.2 1.5-2.3 2.9-3.5 3.6-.1.1-.2.1-.3.2-1 .5-1.5.8-3.1.8-2.4 0-4.2-.7-5.5-2.2-1.3-1.4-2.2-3.7-2.2-6.7V8.6H40v12c0 1.1 0 2.3 1 3.2.6.5 1.6.9 2.8.5.4-.2.9-.5 1.2-.9 1-1.1 1.3-2.6 1.2-4.1V8.6h8.6l.1 3c1.2-1.4 2.3-2.4 3.5-3 1.2-.6 2.6-.9 4.2-.9 1.8 0 3.2.3 4.2 1 1.1.7 2 1.7 2.6 2.9 1.3-1.5 2.6-2.5 3.7-3s2.5-.8 4.1-.8c2.4 0 3.6.6 4.9 2 1.3 1.5 2.1 4.5 2.1 7.6v14.3h-8.4V18.4zm20-12c.3-.3.7-.5 1.1-.7s.8-.2 1.3-.2c.9 0 1.7.3 2.2.8.3.3.5.6.6 1 .1.4.2.8.2 1.2 0 .5-.1.9-.3 1.4s-.5.8-.8 1.1c-.4.3-.8.6-1.2.8-.5.2-1 .3-1.5.3-.4 0-.7 0-1.1-.1v5.4c.5 0 1 0 1.4.1h.9c1.2 0 2.2.4 2.9 1.2.7.8 1.1 1.9 1.1 3.3s-.4 2.5-1.1 3.3c-.3.4-.8.7-1.2.9-.5.2-1 .3-1.5.3s-1-.1-1.4-.2c-.4-.2-.9-.4-1.2-.8-.7-.7-1.3-2.5-1.4-4.3h-8.1c0 2 1.1 5.3 2.1 6.6 1 1.3 2.3 2.2 3.8 2.8 1.6.6 3.7 1 6.4 1 2.8 0 5-.4 6.7-1.3 1.6-.8 3-2.1 3.9-3.7.9-1.5 1.3-2.9 1.3-4.8 0-1.5-.3-2.7-.9-3.8-.5-1-1.2-1.9-2.2-2.5-.8-.5-1.6-.9-2.5-1.1 1.4-.8 2.4-1.6 3.1-2.7.7-1 1.1-2.3 1.1-3.5 0-1.1-.2-2.1-.7-3.1-.4-1-1.1-1.8-1.9-2.5-1.7-1.5-5.2-2.1-9-2.1-3.4 0-5.3.6-7.2 1.9-1.8 1.3-4 4.4-3.9 7.4h8.1c0-1.5.3-2.8.9-3.4z" fill="#f7f7f7"/><path d="M122.3 31.6h-14s5.2-4.3 5-9.9c-.2-6.3-4.2-7.6-4.2-7.6s2.8-1.7 2.6-7.2c0-1.1-.3-2.1-.9-3.1-.5-.9-1.3-2.1-2.2-2.6V.4h14.1c2.7 0 4.3.2 5.9 1 1.6.7 3 1.9 4.1 3.3 1.1 1.5 1.9 3.2 2.3 5 .5 2 .7 4 .7 6.1 0 3.3-.4 5.9-1.1 7.8-.7 1.8-1.7 3.3-3 4.6-1.2 1.2-2.6 2-4.1 2.5-1.5.6-3.3.8-5.2.9zm3-22.4c-1-1.2-2.7-1.8-5.1-1.8h-2.3v17.1h2.2c1.9 0 3.3-.2 4.1-.7.8-.4 1.4-1.2 1.9-2.3.5-1.1.7-2.9.7-5.4 0-3.4-.5-5.7-1.5-6.9z" fill-rule="evenodd" clip-rule="evenodd" fill="#f7f7f7"/></svg>