<svg version="1.1" id="Layer_1" xmlns="http://www.w3.org/2000/svg" x="0" y="0" width="153.5" height="1512.8" xml:space="preserve"><style>.st2{fill:#142335}.st5{fill:#858d95}.st6{fill:#858d96}.st7{fill:#8b8b8b}.st8{fill:none;stroke:#858d95;stroke-linejoin:round}.st9{fill:#231f20}.st11{fill:none;stroke:#858d95;stroke-dasharray:2.0368,0}.st14{fill:#ffab00}.st15{fill:#fff}.st19{fill:#ccc}.st20{fill:none;stroke:#858d95}.st22{fill:#007cc2}.st24{fill:#0167a1}.st25{fill:none;stroke:#858d95;stroke-dasharray:1.9932,0}</style><g id="Слой_1"><path class="st15" d="M125.4 50v5h1.2v-3.7H138v11.3h-11.4V59h-1.2v4.8h13.9V50z"/><path class="st15" d="M130.3 59.1v.9h1l2.2-2.2.9-.9-.9-.9-2.2-2.1h-1v.8l1.7 1.6h-9.6v1.3h9.4z"/><path class="st6" d="M4.4 50v5h1.2v-3.7H17v11.3H5.6V59H4.4v4.8h13.9V50z"/><path class="st6" d="M9.3 59.1v.9h1l2.2-2.2.9-.9-.9-.9-2.2-2.1h-1v.8l1.7 1.6H1.4v1.3h9.4z"/><path class="st15" d="M1.2 281l3.6 4.7 3.6-4.7z"/><path class="st19" d="M.3 864.9l3.6 4.7 3.5-4.7z"/><path class="st22" d="M.3 100.1l3.6 4.7 3.5-4.7z"/><path class="st6" d="M6.2 76.1l3.6 4.7 3.5-4.7z"/><path class="st9" d="M133.1 76.1l3.6 4.5 3.6-4.5z"/><path d="M10 168.6l-2.8-2.8c-.7.5-1.6.8-2.6.8-2.4 0-4.3-1.9-4.3-4.3s1.9-4.3 4.3-4.3 4.4 2 4.4 4.3c0 1-.3 1.9-.9 2.6l2.8 2.8c.3.3.2.7 0 .9-.2.2-.6.2-.9 0zm-5.3-9.3c-1.7 0-3 1.4-3 3 0 1.7 1.4 3 3 3 1.7 0 3-1.4 3-3s-1.4-3-3-3z" fill="#231f20" stroke="#231f20" stroke-miterlimit="10"/><path d="M50.1 168.6l-2.8-2.8c-.7.5-1.6.8-2.6.8-2.4 0-4.3-1.9-4.3-4.3s1.9-4.3 4.3-4.3 4.3 1.9 4.3 4.3c0 1-.3 1.9-.9 2.6l2.8 2.8c.3.3.2.7 0 .9-.1.2-.5.2-.8 0zm-5.3-9.3c-1.7 0-3 1.4-3 3 0 1.7 1.4 3 3 3 1.7 0 3-1.4 3-3s-1.3-3-3-3z" fill="#fff" stroke="#fff" stroke-miterlimit="10"/><path class="st24" d="M11.4 392.1H9.1l-7.2 7.2-1.6 1.6 1.6 1.5 7.2 7.2h2.3v-.8l-7.9-7.9 7.9-8z"/><path class="st22" d="M31.3 392.1H29l-7.1 7.2-1.6 1.6 1.6 1.5 7.1 7.2h2.3v-.8l-7.9-7.9 7.9-8z"/><path class="st24" d="M129.2 392.1h2.3l7.2 7.2 1.6 1.6-1.6 1.5-7.2 7.2h-2.3v-.8l7.9-7.9-7.9-8z"/><path class="st22" d="M109.2 392.1h2.3l7.2 7.2 1.6 1.6-1.6 1.5-7.2 7.2h-2.3v-.8l7.9-7.9-7.9-8z"/><path class="st15" d="M18.9 346.9c-.8 0-1.6.5-1.9 1.3H7.5c-.1-.3-.4-.6-.6-.8l.9-3.3h12.6l2.8-8.3H5.8l-.8-3.1H.3v1.3h3.8l1.9 8 .5 2-.8 2.9h-.1c-1.1 0-2 .9-2 2s.9 2 2 2c1 0 1.8-.7 2-1.6H17c.2.9 1 1.6 2 1.6 1.1 0 2-.9 2-2s-.9-2-2.1-2z"/><path class="st2" d="M21.7 343c-5.3 0-9.6-4.3-9.6-9.6s4.3-9.6 9.6-9.6 9.6 4.3 9.6 9.6-4.3 9.6-9.6 9.6zm0-18.3c-4.8 0-8.6 3.9-8.6 8.6s3.9 8.6 8.6 8.6 8.6-3.9 8.6-8.6-3.8-8.6-8.6-8.6z"/><path class="st14" d="M21.7 324.7c-4.8 0-8.6 3.9-8.6 8.6s3.9 8.6 8.6 8.6 8.6-3.9 8.6-8.6-3.8-8.6-8.6-8.6z"/><path class="st2" d="M127.9 346.9c-.8 0-1.6.5-1.9 1.3h-9.6c-.1-.3-.4-.6-.6-.8l.9-3.3h12.6l2.8-8.3h-17.3l-.7-3.1h-4.8v1.3h3.8l1.9 8.1.5 2-.8 2.9h-.1c-1.1 0-2 .9-2 2s.9 2 2 2c1 0 1.8-.7 2-1.6h9.4c.2.9 1 1.6 2 1.6 1.1 0 2-.9 2-2s-1-2.1-2.1-2.1z"/><path class="st14" d="M130.7 343c-5.3 0-9.6-4.3-9.6-9.6s4.3-9.6 9.6-9.6 9.6 4.3 9.6 9.6-4.3 9.6-9.6 9.6z"/><path class="st19" d="M4.9 455.8l-3.5-3.6-1.1 1.1 2.5 2.5-2.5 2.4 1.1 1.1 3.5-3.5z"/><path d="M5 505l3.1-3.2c.2-.2.2-.5 0-.7-.2-.2-.5-.2-.7 0l-3.1 3.2-3.1-3.2c-.2-.2-.5-.2-.7 0-.2.2-.2.5 0 .7l3.1 3.2-3.1 3.2c-.2.2-.2.5 0 .7.1.1.2.1.4.1.1 0 .3-.1.4-.1l3.1-3.2 3.1 3.2c.1.1.2.1.4.1s.3-.1.4-.1c.2-.2.2-.5 0-.7L5 505z" fill="#3f9cd1"/><path d="M5 485.2l3.1-3.2c.2-.2.2-.5 0-.7-.2-.2-.5-.2-.7 0l-3.1 3.2-3.1-3.2c-.2-.2-.5-.2-.7 0-.2.2-.2.5 0 .7l3.1 3.2-3.1 3.2c-.2.2-.2.5 0 .7.1.1.2.1.4.1.1 0 .3-.1.4-.1l3.1-3.2 3.1 3.2c.1.1.2.1.4.1s.3-.1.4-.1c.2-.2.2-.5 0-.7L5 485.2z" fill="#a3a9b0"/><path fill="#999" d="M7.6 592.3l-.7-.7-2.6 2.7-2.6-2.7-.7.7 2.6 2.7-2.6 2.6.7.7 2.6-2.6 2.6 2.6.7-.7L5 595z"/><path class="st19" d="M7.6 603.2l-.7-.7-2.6 2.7-2.6-2.7-.7.7 2.6 2.7-2.6 2.6.7.7 2.6-2.6 2.6 2.6.7-.7-2.6-2.6zM12.8 623.9h-8c-.9 0-1.6.7-1.6 1.6v16.9c0 .9.7 1.6 1.6 1.6h10.9c.9 0 1.6-.7 1.6-1.6v-13.6l-4.5-4.9zm.3 1.8l2.5 2.7h-2.5v-2.7zm2.6 17.2H4.8c-.3 0-.6-.3-.6-.6v-16.9c0-.3.3-.6.6-.6h7.3v4.5h4.2v12.9c0 .5-.3.7-.6.7z"/><path class="st19" d="M6.6 632.8h7.5v1H6.6zM6.6 635.9h7.5v1H6.6zM6.6 639.1h7.5v1H6.6zM19.8 661.3L9.3 650.8H1.9c-.8 0-1.5.7-1.5 1.5v8.3l10 10.1c.3.3.7.4 1.1.4.4 0 .8-.2 1.1-.4l7.3-7.3c.5-.5.5-1.5-.1-2.1zm-.7 1.4l-7.3 7.3c-.2.2-.5.2-.7 0l-9.8-9.8v-7.9c0-.3.2-.5.5-.5h7L19.1 662c.2.2.2.5 0 .7z"/><circle class="st19" cx="4.3" cy="654.9" r="1"/><path class="st19" d="M9.8 659.1c.9 0 1.7-.7 1.7-1.7 0-.9-.7-1.7-1.7-1.7s-1.7.7-1.7 1.7c.1.9.8 1.7 1.7 1.7zm0-2.3c.4 0 .7.3.7.7 0 .4-.3.7-.7.7-.4 0-.7-.3-.7-.7.1-.4.4-.7.7-.7zM10.7 662.6c-.9 0-1.7.7-1.7 1.7 0 .9.7 1.6 1.7 1.6.9 0 1.7-.7 1.7-1.6 0-.9-.8-1.7-1.7-1.7zm0 2.3c-.4 0-.7-.3-.7-.6 0-.4.3-.7.7-.7.4 0 .7.3.7.7 0 .3-.3.6-.7.6z"/><path transform="rotate(-95.785 9.515 660.998)" class="st19" d="M9 656.9h1v8.3H9z"/><path class="st19" d="M5.4 684.2c0-1.2-.9-2.3-2.1-2.5v-2.9h-1v2.9c-1.2.2-2.1 1.3-2.1 2.5s.9 2.3 2.1 2.5V697h1v-10.3c1.2-.2 2.1-1.2 2.1-2.5zm-2.6 1.6c-.9 0-1.6-.7-1.6-1.6 0-.9.7-1.6 1.6-1.6.9 0 1.6.7 1.6 1.6 0 .9-.7 1.6-1.6 1.6zM8.3 686.9v-8.2h-1v8.2c-1.2.2-2.1 1.3-2.1 2.5s.9 2.3 2.1 2.5v5.1h1v-5c1.2-.2 2.1-1.3 2.1-2.5 0-1.3-.9-2.3-2.1-2.6zm-.5 4.1c-.9 0-1.6-.7-1.6-1.6 0-.9.7-1.6 1.6-1.6.9 0 1.6.7 1.6 1.6 0 .9-.7 1.6-1.6 1.6zM15.3 684.6c0-1.2-.9-2.3-2.1-2.5v-3.3h-1v3.3c-1.2.2-2.1 1.3-2.1 2.5s.9 2.3 2.1 2.5v9.9h1v-9.9c1.2-.2 2.1-1.2 2.1-2.5zm-2.5 1.6c-.9 0-1.6-.7-1.6-1.6 0-.9.7-1.6 1.6-1.6s1.6.7 1.6 1.6c-.1.9-.8 1.6-1.6 1.6zM20.3 692.3c0-1.2-.9-2.3-2.1-2.5v-11h-1v11c-1.2.2-2.1 1.3-2.1 2.5s.9 2.3 2.1 2.5v2.3h1v-2.3c1.2-.3 2.1-1.3 2.1-2.5zm-2.5 1.5c-.9 0-1.6-.7-1.6-1.6s.7-1.6 1.6-1.6c.9 0 1.6.7 1.6 1.6-.1.9-.8 1.6-1.6 1.6zM17.7 705.6h-10c-1.3 0-2.4 1.1-2.4 2.4v2.7H2.8c-1.3 0-2.4 1.1-2.4 2.4v6.4c0 1.3 1.1 2.4 2.4 2.4l-.3 2.8 3-2.8h7.2c1.3 0 2.4-1.1 2.4-2.4v-2.6l2.9 2.7-.3-2.8c1.3 0 2.4-1.1 2.4-2.4V708c0-1.3-1-2.4-2.4-2.4zm-3.6 13.9c0 .8-.6 1.4-1.4 1.4H5.1l-1.3 1.2.1-1.2H2.8c-.8 0-1.4-.6-1.4-1.4v-6.4c0-.8.6-1.4 1.4-1.4h9.9c.8 0 1.4.6 1.4 1.4v6.4zm5-5.1c0 .8-.6 1.4-1.4 1.4h-1.1l.1 1.2-1.3-1.2H15v-2.7c0-1.3-1.1-2.4-2.4-2.4H6.3V708c0-.8.6-1.4 1.4-1.4h10c.8 0 1.4.6 1.4 1.4v6.4z"/><circle class="st19" cx="4.3" cy="715.9" r="1"/><circle class="st19" cx="7.7" cy="715.9" r="1"/><circle class="st19" cx="11.2" cy="715.9" r="1"/><path class="st19" d="M6.8 770.9c-3.6 0-6.5-2.9-6.5-6.5s2.9-6.5 6.5-6.5 6.5 2.9 6.5 6.5c-.1 3.6-3 6.5-6.5 6.5zm0-12c-3 0-5.5 2.5-5.5 5.5s2.5 5.5 5.5 5.5 5.5-2.5 5.5-5.5c-.1-3-2.5-5.5-5.5-5.5z"/><path class="st19" d="M8.2 762H5.9l-.5.5.4.5h1.8l-3.4 3.4.7.6 3.3-3.2v1.6l.5.4.5-.5V762z"/><path class="st14" d="M3.1 807.8h15.3c.8 0 1.5-.7 1.5-1.5s-.7-1.5-1.5-1.5H3.1c-.8 0-1.5.7-1.5 1.5s.7 1.5 1.5 1.5zM18.5 809.8H3.1c-.8 0-1.5.7-1.5 1.5s.7 1.5 1.5 1.5h15.3c.8 0 1.5-.7 1.5-1.5.1-.8-.6-1.5-1.4-1.5zM18.5 814.9H3.1c-.8 0-1.5.7-1.5 1.5s.7 1.5 1.5 1.5h15.3c.8 0 1.5-.7 1.5-1.5.1-.9-.6-1.5-1.4-1.5zM.3 1080.7v-47.6h46.8z"/><path class="st15" d="M8 935.2l7.7-4.4-7.7-4.5-7.7 4.5zM7.2 936.5L0 932.3v7.8l7.2 4.2zM8.7 936.5v7.8l7.3-4.2v-7.8z"/><path class="st2" d="M8 978.3l7.7-4.5-7.7-4.4-7.7 4.4zM7.2 979.6L0 975.4v7.8l7.2 4.2zM8.7 979.6v7.8l7.3-4.2v-7.8z"/><path class="st14" d="M10.4 1309.9l9.7-5.6-9.7-5.7-9.7 5.7zM9.5 1311.5l-9.2-5.3v10l9.2 5.3z"/><path class="st9" d="M11.4 1311.5v10l9.1-5.3v-10z"/><path class="st5" d="M10.2 1161.2l-9-5.2v-10.3l9-5.2 8.9 5.2v10.3l-8.9 5.2zm-8-5.7l8 4.6 7.9-4.6v-9.2l-7.9-4.6-8 4.6v9.2zM.3 1169.9h4.9v4.9H.3zM15.3 1169.9h4.9v4.9h-4.9zM.3 1184.9h4.9v4.9H.3z"/><path class="st20" d="M2.8 1172.4h15v15h-15z"/><path class="st5" d="M15.3 1184.9h4.9v4.9h-4.9z"/><circle class="st5" cx="10.8" cy="1206.3" r="5.4"/><path class="st5" d="M9.3 1290.6c-4.8 0-8.7-3.9-8.7-8.7 0-4.8 3.9-8.7 8.7-8.7 4.8 0 8.7 3.9 8.7 8.7 0 4.8-3.9 8.7-8.7 8.7zm0-15.9c-4 0-7.2 3.2-7.2 7.2s3.2 7.2 7.2 7.2 7.2-3.2 7.2-7.2-3.3-7.2-7.2-7.2z"/><circle class="st5" cx="4.8" cy="1214.4" r="3.5"/><circle class="st5" cx="17.1" cy="1212.2" r="2.1"/><path class="st5" d="M18.4 1235.5l-.7-.7-2.3 2.3-1.9-1.9 2.3-2.3-.7-.7-2.3 2.3-1.9-1.9 2.3-2.3-.7-.7-2.3 2.3-2.3-2.3-.7.7 2.3 2.3-1.9 1.9-2.3-2.3-.7.7 2.3 2.3-1.9 1.9-2.3-2.3-.7.7 2.3 2.3-2.3 2.3.7.7 2.3-2.3 1.9 1.9-2.3 2.3.7.7 2.3-2.3 1.9 1.9-2.3 2.3.7.7 2.3-2.3 2.3 2.3.7-.7-2.3-2.3 1.9-1.9 2.3 2.3.7-.7-2.3-2.3 1.9-1.9 2.3 2.3.7-.7-2.3-2.3 2.3-2.3zm-8.2-2.1l1.9 1.9-1.9 1.9-1.9-1.9 1.9-1.9zm-4.5 4.4l1.9-1.9 1.9 1.9-1.9 1.9-1.9-1.9zm4.5 4.5l-1.9-1.9 1.9-1.9 1.9 1.9-1.9 1.9zm2.6-2.6l-1.9-1.9 1.9-1.9 1.9 1.9-1.9 1.9z"/><path class="st20" d="M15 1116.8v1"/><path fill="none" stroke="#858d95" stroke-dasharray="1.873,.9365" d="M15 1118.7v5.2"/><path class="st20" d="M15 1124.3v1h-1"/><path fill="none" stroke="#858d95" stroke-dasharray="1.9507,.9754" d="M13.1 1125.3H7.7"/><path class="st20" d="M7.2 1125.3h-1M5.6 1125.3H.8v-13.9H15v4.9M20 1129.3v1h-1"/><path class="st11" d="M19 1130.3H6.8"/><path class="st20" d="M6.8 1130.3h-1v-1"/><path class="st25" d="M5.8 1129.3v-11.9"/><path class="st20" d="M5.8 1117.4v-1h1"/><path class="st11" d="M6.8 1116.4H19"/><path class="st20" d="M19 1116.4h1v1"/><path class="st25" d="M20 1117.4v11.9"/><path class="st8" d="M5.6 1116.3l-4.6-5M15.2 1111.3l5 5"/><g><path class="st20" d="M20.2 1130.3l-.7-.7"/><path fill="none" stroke="#858d95" stroke-dasharray="2.5273,1.2636" d="M18.6 1128.7l-2.3-2.2"/><path class="st20" d="M15.9 1126l-.7-.7"/></g><path class="st8" d="M.7 1125.5l5 5"/><circle class="st6" cx="118.3" cy="1402.5" r="21.8"/><g><path class="st15" d="M108.4 1413.7H122v-13.5h-13.5v13.5zm1.3-12.3h11v11h-11v-11z"/><path class="st15" d="M110.6 1397.7h13.9v13.8h1.2v-15.1h-15.1z"/><path class="st15" d="M114.1 1392.9v1.3H128v13.8h1.2v-15.1zM115.8 1403.3h-1.2v3h-3v1.2h3v3.1h1.2v-3.1h3v-1.2h-3z"/></g><g><path class="st15" d="M109.5 1461.5H123V1448h-13.5v13.5zm1.2-12.2h11v11h-11v-11z"/><path class="st15" d="M111.6 1445.5h13.9v13.9h1.2v-15.1h-15.1z"/><path class="st15" d="M115.1 1440.8v1.2H129v13.9h1.3v-15.1zM116.9 1451.1h-1.3v3h-3v1.3h3v3h1.3v-3h3v-1.3h-3z"/></g><circle cx="118.8" cy="1491" r="21.8" fill="#6d747b"/><circle class="st22" cx="70" cy="1402.5" r="21.8"/><circle cx="70" cy="1446.9" r="21.8" fill="#0098ed"/><circle class="st24" cx="70.6" cy="1491" r="21.8"/><circle cx="22.2" cy="1402.5" r="21.8" fill="#e04718"/><circle cx="22.2" cy="1446.9" r="21.8" fill="#f54d1a"/><circle cx="22.8" cy="1491" r="21.8" fill="#c03d14"/><g><path class="st15" d="M108.4 1501.9H122v-13.5h-13.5v13.5zm1.3-12.3h11v11h-11v-11z"/><path class="st15" d="M110.6 1485.9h13.9v13.8h1.2v-15.1h-15.1z"/><path class="st15" d="M114.1 1481.1v1.3H128v13.8h1.2v-15.1zM115.8 1491.5h-1.2v3h-3v1.3h3v3h1.2v-3h3v-1.3h-3z"/></g><path class="st15" d="M65.4 1394.7v16.1l13.8-8zM65.4 1438.8v16.2l13.8-8.1zM65.4 1483v16.1l13.8-8.1z"/><g><path class="st15" d="M19.8 1499.6h-.9v1l2.3 2.3 1 1 1-1 2.2-2.3v-1h-.8l-1.8 1.7v-10.2h-1.4v10.1z"/></g><path class="st15" d="M28.7 1497.5h-3.6v-1.5h3.6c2.1 0 3.9-1.7 3.9-3.9 0-2.1-1.6-3.8-3.7-3.8h-.7v-.7c-.1-2.4-2.1-4.2-4.4-4.2-2.1 0-4 1.5-4.4 3.6l-.2 1-.9-.5c-.7-.3-1.3-.5-2-.5-2.4 0-4.4 2-4.4 4.4 0 2.4 2 4.4 4.4 4.4h3v1.5h-3c-3.3 0-5.9-2.7-5.9-5.9 0-3.3 2.7-5.9 5.9-5.9.6 0 1.2.1 1.9.3.8-2.4 3-4 5.6-4 2.9 0 5.4 2.1 5.8 5 2.6.4 4.5 2.6 4.5 5.3 0 3-2.4 5.4-5.4 5.4z"/><g><path class="st15" d="M19.8 1411.7h-.9v1l2.3 2.3 1 1 1-1 2.2-2.3v-1h-.8l-1.8 1.7v-10.2h-1.4v10.1z"/></g><path class="st15" d="M28.7 1409.6h-3.6v-1.5h3.6c2.1 0 3.9-1.7 3.9-3.9 0-2.1-1.6-3.8-3.7-3.8h-.7v-.7c-.1-2.4-2.1-4.2-4.4-4.2-2.1 0-4 1.5-4.4 3.6l-.2 1-.9-.5c-.7-.3-1.3-.5-2-.5-2.4 0-4.4 2-4.4 4.4 0 2.4 2 4.4 4.4 4.4h3v1.5h-3c-3.3 0-5.9-2.7-5.9-5.9 0-3.3 2.7-5.9 5.9-5.9.6 0 1.2.1 1.9.3.8-2.4 3-4 5.6-4 2.9 0 5.4 2.1 5.8 5 2.6.4 4.5 2.6 4.5 5.3 0 3-2.4 5.4-5.4 5.4z"/><g><path class="st15" d="M19.8 1455.5h-.9v1.1l2.3 2.3 1 .9 1-.9 2.2-2.3v-1.1h-.8l-1.8 1.8v-10.2h-1.4v10z"/></g><path class="st15" d="M28.7 1453.5h-3.6v-1.5h3.6c2.1 0 3.9-1.7 3.9-3.9 0-2.1-1.6-3.8-3.7-3.8h-.7v-.7c-.1-2.4-2.1-4.2-4.4-4.2-2.1 0-4 1.5-4.4 3.6l-.2 1-.9-.5c-.7-.3-1.3-.5-2-.5-2.4 0-4.4 2-4.4 4.4 0 2.4 2 4.4 4.4 4.4h3v1.5h-3c-3.3 0-5.9-2.7-5.9-5.9 0-3.3 2.7-5.9 5.9-5.9.6 0 1.2.1 1.9.3.8-2.4 3-4 5.6-4 2.9 0 5.4 2.1 5.8 5 2.6.4 4.5 2.6 4.5 5.3 0 3-2.4 5.4-5.4 5.4z"/><path class="st7" d="M12.2 1335.5l-5.9 3.4v6.8l5.9 3.4 5.9-3.4v-6.8l-5.9-3.4zm4.5 3.8l-4.5 2.6-4.5-2.6 4.5-2.6 4.5 2.6zm-9.4.9l4.4 2.5v4.9l-4.4-2.5v-4.9zm5.4 7.4v-4.9l4.4-2.5v4.8l-4.4 2.6zM10.8 1350.7H9.1l-.5-1.5-1.2 3.2-1.1-4.8-1.4 6.4-.9-5-1.2 3.4-.6-1.8H.7M13.7 1350.7h1.7l.5-1.5 1.2 3.2 1.1-4.8 1.4 6.4.9-5 1.2 3.4.6-1.8h1.5"/><path fill="none" d="M413.3-77.5h140v1462.8h-140z"/><circle cx="119.3" cy="1446.7" r="21.8" fill="#9ca5af"/><g><path class="st15" d="M108.5 1457.9H122v-13.5h-13.5v13.5zm1.2-12.3h11v11h-11v-11z"/><path class="st15" d="M110.6 1441.9h13.9v13.9h1.2v-15.1h-15.1z"/><path class="st15" d="M114.1 1437.2v1.2H128v13.9h1.3v-15.1zM115.9 1447.5h-1.3v3h-3v1.3h3v3h1.3v-3h3v-1.3h-3z"/></g><g><path class="st5" d="M9.8 1285.4c-2 0-3.1-1.1-3.1-3.4 0-1.1.3-2 .8-2.6.6-.6 1.3-.9 2.4-.9.8 0 1.4.1 2 .4l-.5 1.4c-.3-.1-.5-.2-.8-.3-.2-.1-.5-.1-.7-.1-.9 0-1.4.7-1.4 2s.5 1.9 1.4 1.9c.3 0 .7 0 1-.1.3-.1.6-.2.9-.4v1.5c-.3.2-.6.3-.9.4s-.6.2-1.1.2z"/></g><g><path class="st9" d="M11.3 1059.8L10 1061l-6-6.2 3.5-3.4 1 1.1-2.2 2.2 1.5 1.6 2.1-2 1 1.1-2.1 2 2.5 2.4zM12.6 1049.2c.2-.2.3-.3.5-.4l1.1 1.3c-.1.1-.3.2-.4.3-.4.4-.6.8-.7 1.2 0 .4.1.8.5 1.2l2.3 2.4-1.3 1.2-4.6-4.7 1-.9 1 .6.1-.1c-.1-.4-.1-.8 0-1.2 0-.3.2-.6.5-.9zM20.6 1050.8c-.8.7-1.6 1.1-2.4 1.1-.8 0-1.6-.4-2.4-1.2-.8-.8-1.2-1.6-1.2-2.4 0-.8.3-1.6 1-2.2.7-.6 1.4-1 2.1-.9.7 0 1.4.4 2.1 1l.6.6-3 2.9c.4.4.8.5 1.2.5.4 0 .8-.2 1.1-.5.3-.3.5-.6.7-.9.2-.3.4-.7.5-1l1 1c-.1.3-.3.6-.5.9-.1.5-.4.8-.8 1.1zm-4-3.8c-.3.3-.4.6-.4.9 0 .3.2.7.4 1l1.8-1.7c-.3-.3-.6-.5-1-.5-.2 0-.5.1-.8.3zM25.7 1045.9c-.8.7-1.6 1.1-2.4 1.1-.8 0-1.6-.4-2.4-1.2-.8-.8-1.2-1.6-1.2-2.4 0-.8.3-1.6 1-2.2.7-.6 1.4-1 2.1-.9.7 0 1.4.4 2.1 1l.6.6-3 2.9c.4.4.8.5 1.1.5.4 0 .8-.2 1.1-.5.3-.3.5-.6.7-.9.2-.3.4-.7.5-1l1 1c-.1.3-.3.6-.5.9 0 .4-.3.8-.7 1.1zm-4-3.8c-.3.3-.4.6-.4.9 0 .3.2.7.4 1l1.8-1.7c-.3-.3-.6-.5-1-.5-.2-.1-.5.1-.8.3z"/></g></g></svg>