<?xml version="1.0" encoding="iso-8859-1"?>
<!-- Generator: Adobe Illustrator 19.0.0, SVG Export Plug-In . SVG Version: 6.00 Build 0)  -->
<svg version="1.1" id="Capa_1" xmlns="http://www.w3.org/2000/svg" xmlns:xlink="http://www.w3.org/1999/xlink" x="0px" y="0px"
	 viewBox="0 0 512 512" style="enable-background:new 0 0 512 512;" xml:space="preserve">
<path style="fill:#FB4239;" d="M256,177.574L256,177.574c-59.131,0-107.067,47.935-107.067,107.066v140.505h214.133V284.641
	C363.066,225.509,315.131,177.574,256,177.574z"/>
<path style="fill:#E21717;" d="M278.453,179.94c-7.241-1.545-14.751-2.366-22.453-2.366l0,0
	c-59.131,0-107.066,47.935-107.066,107.066v140.505h44.906V284.641C193.84,233.212,230.103,190.259,278.453,179.94z"/>
<rect x="239.16" y="360.73" style="fill:#C4000A;" width="31.387" height="64.42"/>
<rect x="127.92" y="409.32" style="fill:#2796AF;" width="256.16" height="49.612"/>
<rect x="127.92" y="409.32" style="fill:#0E7889;" width="21.01" height="49.612"/>
<rect x="105.73" y="445.77" style="fill:#CAEDFF;" width="300.54" height="58.725"/>
<rect x="105.73" y="445.77" style="fill:#76C2E0;" width="22.19" height="58.725"/>
<circle style="fill:#FEC007;" cx="254.85" cy="339.33" r="37.969"/>
<path d="M288.397,203.962c-3.672-1.904-8.203-0.471-10.109,3.207c-1.906,3.677-0.471,8.204,3.206,10.11
	c21.506,11.148,36.901,28.356,43.351,48.453c1.021,3.183,3.968,5.21,7.14,5.21c0.76,0,1.532-0.116,2.294-0.361
	c3.943-1.266,6.115-5.489,4.85-9.433C331.46,237.255,313.443,216.945,288.397,203.962z"/>
<path d="M406.27,438.275h-14.69V409.33c0-4.142-3.357-7.5-7.5-7.5h-13.51V284.64c0-63.174-51.396-114.57-114.57-114.57
	c-30.592,0-59.362,11.917-81.015,33.559c-21.639,21.649-33.556,50.42-33.556,81.012v11.59c0,4.142,3.357,7.5,7.5,7.5
	s7.5-3.358,7.5-7.5v-11.59c0-26.586,10.357-51.591,29.162-70.405c18.817-18.807,43.821-29.165,70.408-29.165
	c54.903,0,99.57,44.667,99.57,99.57v117.19h-77.53v-23.332c8.546-5.051,15.37-12.897,19.178-22.667
	c1.504-3.859-0.405-8.208-4.265-9.711c-3.86-1.505-8.208,0.404-9.712,4.264c-2.93,7.519-8.528,13.329-15.475,16.562
	c-0.132,0.053-0.261,0.111-0.39,0.171c-3.848,1.725-8.09,2.68-12.526,2.68c-16.801,0-30.469-13.668-30.469-30.469
	s13.668-30.469,30.469-30.469c11.887,0,22.766,6.995,27.717,17.819c1.722,3.767,6.172,5.425,9.939,3.701
	c3.767-1.723,5.424-6.173,3.701-9.939c-7.385-16.147-23.618-26.581-41.357-26.581c-25.071,0-45.469,20.397-45.469,45.469
	c0,16.605,8.952,31.153,22.278,39.089v23.412h-75.23v-76.06c0-4.142-3.357-7.5-7.5-7.5s-7.5,3.358-7.5,7.5v76.06h-13.51
	c-4.143,0-7.5,3.358-7.5,7.5v28.945h-14.69c-4.143,0-7.5,3.358-7.5,7.5V504.5c0,4.142,3.357,7.5,7.5,7.5h174.497
	c4.143,0,7.5-3.358,7.5-7.5s-3.357-7.5-7.5-7.5H113.229v-43.725h14.594c0.032,0,0.064,0.005,0.097,0.005s0.064-0.004,0.097-0.005
	h255.967c0.032,0,0.064,0.005,0.097,0.005s0.064-0.004,0.097-0.005h14.593V497h-88.996c-4.143,0-7.5,3.358-7.5,7.5
	s3.357,7.5,7.5,7.5h96.496c4.143,0,7.5-3.358,7.5-7.5v-58.725C413.77,441.633,410.412,438.275,406.27,438.275z M246.66,384.044
	c2.659,0.486,5.393,0.753,8.19,0.753c2.788,0,5.524-0.254,8.189-0.733v17.766h-16.38v-17.786H246.66z M135.42,416.83h241.16v21.445
	H135.42V416.83z"/>
<path d="M256,142.817c4.143,0,7.5-3.358,7.5-7.5V7.5c0-4.142-3.357-7.5-7.5-7.5s-7.5,3.358-7.5,7.5v127.817
	C248.5,139.459,251.857,142.817,256,142.817z"/>
<path d="M204.54,148.96c1.372,2.464,3.927,3.854,6.561,3.854c1.234,0,2.485-0.305,3.641-0.948c3.619-2.014,4.92-6.582,2.906-10.201
	l-62.16-111.684c-2.015-3.619-6.581-4.921-10.201-2.906c-3.619,2.014-4.92,6.582-2.906,10.201L204.54,148.96z"/>
<path d="M180.007,176.803c2.688,0,5.287-1.449,6.633-3.988c1.94-3.66,0.547-8.199-3.113-10.14L70.598,102.806
	c-3.658-1.941-8.2-0.546-10.139,3.113c-1.94,3.66-0.547,8.199,3.113,10.14l112.929,59.869
	C177.62,176.522,178.822,176.803,180.007,176.803z"/>
<path d="M297.259,151.866c1.155,0.643,2.406,0.948,3.641,0.948c2.634,0,5.188-1.39,6.561-3.854l62.16-111.684
	c2.014-3.619,0.713-8.187-2.906-10.201c-3.62-2.016-8.187-0.713-10.201,2.906l-62.16,111.684
	C292.339,145.285,293.64,149.852,297.259,151.866z"/>
<path d="M451.541,105.919c-1.94-3.659-6.48-5.052-10.139-3.113l-112.929,59.869c-3.66,1.94-5.054,6.48-3.113,10.14
	c1.347,2.54,3.944,3.988,6.633,3.988c1.185,0,2.387-0.282,3.506-0.875l112.929-59.869
	C452.088,114.119,453.481,109.579,451.541,105.919z"/>
<g>
</g>
<g>
</g>
<g>
</g>
<g>
</g>
<g>
</g>
<g>
</g>
<g>
</g>
<g>
</g>
<g>
</g>
<g>
</g>
<g>
</g>
<g>
</g>
<g>
</g>
<g>
</g>
<g>
</g>
</svg>
