<svg height="511pt" viewBox="1 -64 511.99849 511" width="511pt" xmlns="http://www.w3.org/2000/svg"><path d="m90.582031 238.976562h-60.6875c-10.09375-10.09375-15.757812-15.753906-25.851562-25.851562v-93.046875c10.09375-10.09375 15.757812-15.753906 25.851562-25.851563h60.6875zm0 0" fill="#ff3f62"/><path d="m90.582031 94.226562v144.75l231.171875 67.769532v-280.289063zm0 0" fill="#fff"/><path d="m370.359375 12.210938-48.605469 14.246093v280.289063l48.605469 14.246094zm0 0" fill="#fff"/><path d="m370.359375 120.429688v92.34375c25.5 0 46.171875-20.671876 46.171875-46.171876s-20.671875-46.171874-46.171875-46.171874zm0 0" fill="#ff3f62"/><path d="m235.539062 281.484375-8.714843 31.085937c-2.824219 10.070313-9.398438 18.433594-18.515625 23.558594-9.113282 5.125-19.679688 6.390625-29.746094 3.566406-20.785156-5.824218-32.953125-27.476562-27.125-48.261718l8.964844-31.972656-33.675782-9.875-9.078124 32.375c-11.050782 39.414062 12.027343 80.472656 51.441406 91.523437 6.742187 1.890625 13.601562 2.8125 20.417968 2.789063 12.480469-.046876 24.816407-3.269532 35.996094-9.554688 17.285156-9.714844 29.753906-25.582031 35.105469-44.675781l8.605469-30.683594zm0 0" fill="#8ca4b8"/><path d="m34.007812 120.078125 25.851563-25.851563h-29.964844l-25.851562 25.851563v93.046875l25.851562 25.851562h29.964844l-25.851563-25.851562zm0 0" fill="#c70024"/><path d="m120.546875 238.976562v-144.75l201.207031-58.984374v-8.785157l-231.171875 67.769531v144.75l231.171875 67.769532v-8.785156zm0 0" fill="#dedddf"/><path d="m351.71875 306.746094v-280.289063l18.640625-5.460937v-8.785156l-48.605469 14.246093v280.289063l48.605469 14.246094v-8.785157zm0 0" fill="#dedddf"/><path d="m400.324219 131.488281c-8.066407-6.890625-18.527344-11.058593-29.964844-11.058593v92.34375c11.4375 0 21.898437-4.167969 29.964844-11.058594zm0 0" fill="#c70024"/><path d="m199.054688 373.484375c-39.414063-11.050781-62.492188-52.109375-51.441407-91.523437l6.800781-24.257813-27.6875-8.117187-9.078124 32.375c-11.050782 39.414062 12.027343 80.472656 51.441406 91.523437 6.742187 1.890625 13.601562 2.8125 20.417968 2.789063 4.933594-.019532 9.839844-.539063 14.664063-1.542969-1.710937-.355469-3.417969-.769531-5.117187-1.246094zm0 0" fill="#5c7c94"/><path d="m427.472656 166.460938c0-27.046876-20.117187-49.472657-46.175781-53.128907v-111.265625c-12.554687 3.683594-275.492187 80.761719-288.339844 84.527344h-62.71875l-30.238281 30.242188v99.25l30.238281 30.242187h62.71875c17.453125 5.117187 273.210938 80.09375 288.339844 84.527344v-111.265625c26.058594-3.65625 46.175781-26.082032 46.175781-53.128906zm-412.488281 43.421874v-15.597656h25.265625v-14.984375h-25.265625v-25.679687h25.265625v-14.980469h-25.265625v-15.601563l21.460937-21.460937h50.09375v129.765625h-50.09375zm86.539063-110.1875 216.1875-63.375v260.28125l-216.1875-63.375zm264.792968 211.152344-33.625-9.855468v-269.0625l33.625-9.855469zm14.980469-106.433594v-75.90625c17.757813 3.496094 31.191406 19.1875 31.191406 37.953126 0 18.765624-13.433593 34.457031-31.191406 37.953124zm0 0"/><path d="m461.871094 106.734375 48.964844-3.816406 1.164062 14.9375-48.964844 3.816406zm0 0"/><path d="m461.828125 194.285156 1.199219-14.933594 48.953125 3.933594-1.199219 14.933594zm0 0"/><path d="m424.628906 22.476562 74.96875-21.976562 4.214844 14.375-74.96875 21.976562zm0 0"/><path d="m424.628906 310.457031 4.214844-14.378906 74.96875 21.976563-4.214844 14.378906zm0 0"/><path d="m256.84375 319.882812c-9.941406 35.464844-46.730469 56.21875-82.285156 46.25-35.4375-9.9375-56.183594-46.851562-46.246094-82.289062l3.6875-13.152344-14.429688-4.042968-3.6875 13.148437c-12.164062 43.394531 13.238282 88.59375 56.632813 100.761719 43.011719 12.054687 88.4375-12.6875 100.757813-56.632813l3.214843-11.464843-14.429687-4.042969zm0 0"/><path d="m165.671875 280.566406-14.425781-4.046875-3.574219 12.753907c-6.941406 24.761718 7.554687 50.554687 32.316406 57.496093 24.875 6.972657 50.550781-7.542969 57.496094-32.316406l3.328125-11.863281-14.425781-4.042969-3.328125 11.859375c-4.722656 16.84375-22.175782 26.664062-39.027344 21.9375-16.8125-4.710938-26.648438-22.210938-21.933594-39.027344zm0 0"/><path d="m69.832031 206.414062h-14.984375v-29.964843h14.984375zm0-39.953124h-14.984375v-14.980469h14.984375zm0-24.96875h-14.984375v-14.984376h14.984375zm0 0" fill="#fff"/></svg>